<svg width="22" height="19" viewBox="0 0 22 19" fill="none" xmlns="http://www.w3.org/2000/svg">
<path d="M15.5147 0.732421C14.9258 0.73242 14.326 0.88509 13.7153 1.19043C13.0828 1.51758 12.5594 1.97558 12.145 2.56445C11.7306 3.17513 11.5234 3.89486 11.5234 4.72363C11.5234 5.26888 11.6761 5.94499 11.9814 6.75195C12.4176 6.70833 12.7448 6.68652 12.9629 6.68652C14.0752 6.68652 14.9912 7.03548 15.7109 7.7334C16.4307 8.43131 16.7905 9.24918 16.7905 10.187C16.7905 11.3429 16.3107 12.4443 15.3511 13.4912C14.3696 14.5599 12.8757 15.356 10.8691 15.8794L11.5562 18.104C15.3511 17.1007 17.9246 15.6177 19.2769 13.6548C20.6073 11.6919 21.2725 9.65267 21.2725 7.53711C21.2725 6.01042 20.9671 4.73454 20.3564 3.70947C19.7458 2.68441 19.0042 1.93197 18.1318 1.45215C17.2376 0.97233 16.3652 0.732421 15.5147 0.732421ZM5.24219 0.73242C4.65332 0.73242 4.05355 0.885089 3.44287 1.19043C2.81039 1.51758 2.28695 1.97558 1.87256 2.56445C1.45817 3.17513 1.25098 3.89485 1.25098 4.72363C1.25098 5.26888 1.40365 5.94498 1.70899 6.75195C2.14518 6.70833 2.46143 6.68652 2.65772 6.68652C3.77002 6.68652 4.68604 7.02457 5.40576 7.70068C6.10368 8.3986 6.45264 9.22737 6.45264 10.187C6.45264 11.3429 5.97282 12.4443 5.01318 13.4912C4.03174 14.5599 2.53776 15.356 0.531251 15.8794L1.25098 18.104C5.0459 17.1007 7.61947 15.6177 8.97168 13.6548C10.3021 11.6919 10.9673 9.65267 10.9673 7.53711C10.9673 6.01041 10.6729 4.73454 10.084 3.70947C9.47331 2.68441 8.73177 1.93196 7.85938 1.45215C6.96517 0.972329 6.09278 0.73242 5.24219 0.73242Z" fill="#EAEAEA"/>
</svg>
