<svg width="45" height="45" viewBox="0 0 45 45" fill="none" xmlns="http://www.w3.org/2000/svg">
<g id="bi:arrow-down-circle" clip-path="url(#clip0_161_3011)">
<path id="Vector" fill-rule="evenodd" clip-rule="evenodd" d="M22.5 2.8125C17.2786 2.8125 12.271 4.88671 8.57883 8.57883C4.88671 12.271 2.8125 17.2785 2.8125 22.5C2.8125 27.7214 4.88671 32.729 8.57883 36.4212C12.271 40.1133 17.2785 42.1875 22.5 42.1875C27.7214 42.1875 32.729 40.1133 36.4212 36.4212C40.1133 32.729 42.1875 27.7214 42.1875 22.5C42.1875 17.2786 40.1133 12.271 36.4212 8.57883C32.729 4.88671 27.7214 2.8125 22.5 2.8125ZM22.5 45C16.5326 45 10.8097 42.6295 6.59009 38.4099C2.37053 34.1903 -1.24435e-06 28.4674 -9.83506e-07 22.5C-7.22664e-07 16.5326 2.37053 10.8097 6.5901 6.5901C10.8097 2.37053 16.5326 -1.24435e-06 22.5 -9.83506e-07C28.4674 -7.22664e-07 34.1903 2.37053 38.4099 6.5901C42.6295 10.8097 45 16.5326 45 22.5C45 28.4674 42.6295 34.1903 38.4099 38.4099C34.1903 42.6295 28.4674 45 22.5 45ZM32.3437 23.9062C32.7167 23.9062 33.0744 23.7581 33.3381 23.4944C33.6018 23.2306 33.75 22.873 33.75 22.5C33.75 22.127 33.6018 21.7694 33.3381 21.5056C33.0744 21.2419 32.7167 21.0937 32.3437 21.0937L16.0509 21.0937L22.0894 15.0581C22.3534 14.7941 22.5018 14.4359 22.5018 14.0625C22.5018 13.6891 22.3534 13.3309 22.0894 13.0669C21.8253 12.8028 21.4672 12.6545 21.0937 12.6545C20.7203 12.6545 20.3622 12.8028 20.0981 13.0669L11.6606 21.5044C11.5297 21.635 11.4258 21.7902 11.3549 21.961C11.284 22.1319 11.2475 22.315 11.2475 22.5C11.2475 22.685 11.284 22.8681 11.3549 23.039C11.4258 23.2098 11.5297 23.365 11.6606 23.4956L20.0981 31.9331C20.3622 32.1972 20.7203 32.3455 21.0937 32.3455C21.4672 32.3455 21.8253 32.1972 22.0894 31.9331C22.3534 31.6691 22.5018 31.3109 22.5018 30.9375C22.5018 30.5641 22.3534 30.2059 22.0894 29.9419L16.0509 23.9062L32.3437 23.9062Z" fill="black"/>
</g>
<defs>
<clipPath id="clip0_161_3011">
<rect width="45" height="45" fill="white" transform="translate(45) rotate(90)"/>
</clipPath>
</defs>
</svg>
