<svg width="184" height="184" viewBox="0 0 184 184" fill="none" xmlns="http://www.w3.org/2000/svg">
<g id="Group">
<path id="Vector" d="M125.783 150.177C157.92 131.547 168.869 90.3917 150.239 58.2549C131.609 26.118 90.4536 15.1689 58.3168 33.7992C26.18 52.4296 15.2308 93.5845 33.8611 125.721C52.4915 157.858 93.6464 168.807 125.783 150.177Z" stroke="#A61E2F" stroke-width="0.66" stroke-miterlimit="10" stroke-linecap="round"/>
<path id="Vector_2" d="M122.41 144.358C151.333 127.591 161.187 90.5513 144.42 61.6282C127.653 32.705 90.6132 22.8508 61.6901 39.6181C32.7669 56.3854 22.9127 93.4248 39.68 122.348C56.4473 151.271 93.4868 161.125 122.41 144.358Z" stroke="#A61E2F" stroke-width="0.66" stroke-miterlimit="10" stroke-linecap="round"/>
<path id="Vector_3" d="M119.037 138.539C144.746 123.635 153.505 90.7109 138.601 65.0014C123.697 39.2919 90.7729 30.5326 65.0634 45.4369C39.3539 60.3412 30.5946 93.2651 45.4989 118.975C60.4031 144.684 93.3271 153.443 119.037 138.539Z" stroke="#A61E2F" stroke-width="0.66" stroke-miterlimit="10" stroke-linecap="round"/>
<path id="Vector_4" d="M115.663 132.72C138.159 119.679 145.823 90.8705 132.782 68.3747C119.741 45.8789 90.9325 38.2145 68.4367 51.2557C45.9409 64.297 38.2764 93.1054 51.3177 115.601C64.3589 138.097 93.1674 145.761 115.663 132.72Z" stroke="#A61E2F" stroke-width="0.66" stroke-miterlimit="10" stroke-linecap="round"/>
<path id="Vector_5" d="M112.29 126.901C131.572 115.723 138.141 91.0301 126.963 71.748C115.785 52.4659 91.0921 45.8964 71.81 57.0746C52.5279 68.2528 45.9584 92.9457 57.1366 112.228C68.3148 131.51 93.0077 138.079 112.29 126.901Z" stroke="#A61E2F" stroke-width="0.66" stroke-miterlimit="10" stroke-linecap="round"/>
<path id="Vector_6" d="M108.916 121.082C124.985 111.767 130.459 91.1896 121.144 75.1212C111.829 59.0528 91.2517 53.5782 75.1833 62.8934C59.1148 72.2086 53.6403 92.786 62.9554 108.854C72.2706 124.923 92.848 130.397 108.916 121.082Z" stroke="#A61E2F" stroke-width="0.66" stroke-miterlimit="10" stroke-linecap="round"/>
<path id="Vector_7" d="M105.543 115.263C118.398 107.811 122.778 91.3492 115.325 78.4945C107.873 65.6398 91.4113 61.2601 78.5565 68.7122C65.7018 76.1644 61.3221 92.6263 68.7743 105.481C76.2264 118.336 92.6884 122.716 105.543 115.263Z" stroke="#A61E2F" stroke-width="0.66" stroke-miterlimit="10" stroke-linecap="round"/>
<path id="Vector_8" d="M102.17 109.444C111.811 103.855 115.096 91.5088 109.506 81.8678C103.917 72.2267 91.5709 68.942 81.9298 74.5311C72.2888 80.1202 69.004 92.4666 74.5931 102.108C80.1822 111.749 92.5287 115.034 102.17 109.444Z" stroke="#A61E2F" stroke-width="0.66" stroke-miterlimit="10" stroke-linecap="round"/>
<path id="Vector_9" d="M98.7964 103.625C105.224 99.8994 107.414 91.6684 103.688 85.241C99.9615 78.8137 91.7305 76.6238 85.3031 80.3499C78.8758 84.076 76.6859 92.307 80.412 98.7343C84.1381 105.162 92.3691 107.352 98.7964 103.625Z" stroke="#A61E2F" stroke-width="0.66" stroke-miterlimit="10" stroke-linecap="round"/>
<path id="Vector_10" d="M95.4231 97.8065C98.6367 95.9435 99.7317 91.828 97.8686 88.6143C96.0056 85.4006 91.8901 84.3057 88.6764 86.1687C85.4627 88.0318 84.3678 92.1472 86.2309 95.3609C88.0939 98.5746 92.2094 99.6695 95.4231 97.8065Z" stroke="#A61E2F" stroke-width="0.66" stroke-miterlimit="10" stroke-linecap="round"/>
</g>
</svg>
