<svg width="25" height="24" viewBox="0 0 25 24" fill="none" xmlns="http://www.w3.org/2000/svg">
<g id="dashicons:email">
<path id="Vector" d="M4.71046 5H20.2895C21.7593 5 22.5 5.68833 22.5 7.08833V16.9117C22.5 18.3 21.7593 19 20.2895 19H4.71046C3.24074 19 2.5 18.3 2.5 16.9117V7.08833C2.5 5.68833 3.24074 5 4.71046 5ZM12.4941 15.0333L20.4189 8.58167C20.7011 8.34833 20.9245 7.81167 20.5717 7.33333C20.2307 6.855 19.6076 6.84333 19.1961 7.135L12.4941 11.6383L5.80394 7.135C5.39242 6.84333 4.76925 6.855 4.42828 7.33333C4.07554 7.81167 4.29894 8.34833 4.58113 8.58167L12.4941 15.0333Z" fill="#F8F7F6"/>
</g>
</svg>
