<svg width="15" height="18" viewBox="0 0 15 18" fill="none" xmlns="http://www.w3.org/2000/svg">
<g id="fa6-solid:location-dot" clip-path="url(#clip0_179_3138)">
<path id="Vector" d="M6.63594 16.9813C4.73281 14.7974 0.5 9.50433 0.5 6.53125C0.5 2.9241 3.63396 0 7.5 0C11.3646 0 14.5 2.9241 14.5 6.53125C14.5 9.50433 10.2344 14.7974 8.36406 16.9813C7.91562 17.5017 7.08437 17.5017 6.63594 16.9813ZM7.5 8.70833C8.78698 8.70833 9.83333 7.73205 9.83333 6.53125C9.83333 5.33045 8.78698 4.35417 7.5 4.35417C6.21302 4.35417 5.16667 5.33045 5.16667 6.53125C5.16667 7.73205 6.21302 8.70833 7.5 8.70833Z" fill="#F8F7F6"/>
</g>
<defs>
<clipPath id="clip0_179_3138">
<rect width="14" height="17.4167" fill="white" transform="translate(0.5)"/>
</clipPath>
</defs>
</svg>
